<svg width="41" height="41" viewBox="0 0 41 41" fill="none" xmlns="http://www.w3.org/2000/svg">
<rect x="0.5" y="0.5" width="40" height="40" rx="11.5" fill="white" stroke="#E8ECF4"/>
<path d="M24.9638 16.1008C24.8682 16.005 24.7546 15.929 24.6296 15.8771C24.5046 15.8253 24.3705 15.7986 24.2352 15.7986C24.0998 15.7986 23.9657 15.8253 23.8407 15.8771C23.7157 15.929 23.6021 16.005 23.5065 16.1008L16.6646 22.9388C16.5883 23.0149 16.5277 23.1053 16.4864 23.2049C16.4451 23.3044 16.4238 23.4111 16.4238 23.5189C16.4238 23.6267 16.4451 23.7334 16.4864 23.8329C16.5277 23.9325 16.5883 24.0229 16.6646 24.099L23.5065 30.937C23.9099 31.3402 24.5604 31.3402 24.9638 30.937C25.3672 30.5338 25.3672 29.8838 24.9638 29.4806L19.0029 23.5148L24.972 17.549C25.3672 17.154 25.3672 16.4957 24.9638 16.1008Z" fill="#1E232C" stroke="#1E232C" stroke-width="0.2"/>
</svg>
